<?xml version="1.0" encoding="utf-8"?>
<svg viewBox="0 0 80 80" xmlns="http://www.w3.org/2000/svg">
  <path style="fill: rgb(45, 45, 45); transform-origin: 40.139px 40.06px;" d="M 73.743 20.111 C 72.725 23.029 70.69 28.869 71.723 34.106 C 72.755 39.344 76.853 43.978 78.768 46.385 C 80.682 48.79 80.41 48.965 77.643 50.295 C 74.876 51.623 69.611 54.105 66.736 58.446 C 63.862 62.786 63.378 68.986 62.968 72.056 C 62.558 75.123 62.222 75.063 59.273 74.034 C 56.325 73.007 50.765 71.011 45.666 72.019 C 40.566 73.024 35.925 77.032 33.52 78.865 C 31.114 80.7 30.943 80.359 29.598 77.504 C 28.256 74.648 25.743 69.278 21.439 66.417 C 17.136 63.558 11.042 63.207 8.089 62.891 C 5.135 62.573 5.324 62.286 6.335 59.412 C 7.345 56.537 9.178 51.073 8.068 45.94 C 6.958 40.809 2.903 36.006 1.09 33.503 C -0.725 31.001 -0.299 30.798 2.563 29.491 C 5.426 28.183 10.722 25.777 13.55 21.499 C 16.379 17.223 16.738 11.081 17.117 8.086 C 17.497 5.093 17.894 5.247 20.828 6.271 C 23.762 7.29 29.231 9.176 34.274 8.094 C 39.317 7.013 43.934 2.961 46.366 1.126 C 48.795 -0.711 49.042 -0.333 50.357 2.485 C 51.671 5.302 54.056 10.558 58.3 13.415 C 62.546 16.274 68.652 16.733 71.707 16.962 C 74.761 17.191 74.761 17.191 73.742 20.109 L 73.743 20.111 Z M 57.292 28.921 C 51.14 19.448 38.473 16.755 28.999 22.908 C 19.528 29.06 16.834 41.726 22.986 51.199 C 29.138 60.673 41.805 63.365 51.279 57.212 C 60.751 51.061 63.444 38.394 57.292 28.921 Z"/>
</svg>