<?xml version="1.0" encoding="utf-8"?>
<svg viewBox="0 0 80 80" xmlns="http://www.w3.org/2000/svg">
  <path d="M 0 23.352 L 15.565 23.352 L 37.399 0 L 37.399 80 L 14.354 55.352 L 0 55.352 L 0 23.352 Z" style="fill: rgb(45, 45, 45);" transform="matrix(1, 0, 0, 1, 1.7763568394002505e-15, 0)"/>
  <path style="fill: none; stroke-linecap: round; stroke-linejoin: round; stroke-width: 4px; stroke: rgb(45, 45, 45); transform-origin: 44.389px 40.424px;" d="M 43 33 C 48.393 34.871 49.754 41.928 45.449 45.701 C 44.823 46.25 44.109 46.69 43.339 47"/>
  <path style="fill: none; stroke-linecap: round; stroke-linejoin: round; stroke-width: 4px; stroke: rgb(45, 45, 45); transform-origin: 50.778px 40.847px;" d="M 48 26 C 58.786 29.744 61.508 43.858 52.897 51.404 C 51.647 52.501 50.218 53.381 48.678 54"/>
  <path style="fill: none; stroke-linecap: round; stroke-linejoin: round; stroke-width: 4px; stroke: rgb(45, 45, 45); transform-origin: 57.167px 41.271px;" d="M 53 19 C 69.179 24.616 73.262 45.787 60.346 57.106 C 58.471 58.752 56.327 60.072 54.017 61"/>
  <path style="fill: none; stroke-linecap: round; stroke-linejoin: round; stroke-width: 4px; stroke: rgb(45, 45, 45); transform-origin: 63.556px 41.695px;" d="M 58 12 C 79.572 19.488 85.016 47.716 67.794 62.808 C 65.294 65.003 62.436 66.763 59.356 68"/>
</svg>